<?xml version="1.0" standalone="no"?>
<!DOCTYPE svg PUBLIC "-//W3C//DTD SVG 20010904//EN"
 "http://www.w3.org/TR/2001/REC-SVG-20010904/DTD/svg10.dtd">
<svg version="1.0" xmlns="http://www.w3.org/2000/svg"
 width="1654.000000pt" height="1654.000000pt" viewBox="0 0 1654.000000 1654.000000"
 preserveAspectRatio="xMidYMid meet">
<metadata>
Created by potrace 1.11, written by Peter Selinger 2001-2013
</metadata>
<g transform="translate(0.000000,1654.000000) scale(0.100000,-0.100000)"
fill="#000000" stroke="none">
<path d="M7825 16360 c-898 -52 -1682 -221 -2500 -537 -268 -104 -452 -186
-695 -309 -801 -405 -1459 -881 -2091 -1513 -638 -639 -1124 -1312 -1523
-2109 -288 -576 -530 -1259 -662 -1872 -239 -1108 -243 -2296 -13 -3410 137
-661 388 -1375 695 -1975 339 -664 778 -1299 1256 -1816 578 -624 1223 -1142
1923 -1544 501 -288 950 -488 1515 -676 590 -196 1180 -317 1835 -375 342 -30
1071 -30 1395 1 924 89 1654 272 2496 626 189 79 591 280 799 399 814 466
1536 1061 2138 1763 605 706 1070 1483 1411 2357 360 924 536 1883 536 2915 0
1071 -182 2020 -576 3012 -356 894 -896 1750 -1548 2456 -857 925 -1870 1619
-3021 2067 -748 291 -1491 462 -2295 525 -230 19 -861 27 -1075 15z m1005
-429 c855 -73 1548 -235 2305 -539 717 -288 1428 -714 2034 -1221 366 -306
719 -662 1026 -1036 872 -1061 1454 -2380 1650 -3740 57 -400 69 -580 69
-1095 1 -486 -4 -579 -45 -940 -174 -1507 -820 -2954 -1846 -4132 -139 -160
-554 -575 -713 -713 -1184 -1028 -2623 -1670 -4135 -1844 -360 -42 -443 -46
-915 -46 -471 0 -563 5 -923 45 -907 103 -1862 403 -2677 840 -1313 703 -2384
1753 -3102 3040 -428 766 -719 1595 -863 2455 -112 669 -134 1387 -64 2074
126 1245 566 2456 1267 3491 748 1105 1745 1981 2929 2574 346 173 601 278
983 406 689 232 1323 351 2090 394 125 7 806 -3 930 -13z"/>
<path d="M9469 13638 c305 -411 536 -769 712 -1103 74 -142 172 -355 166 -361
-2 -2 -96 105 -208 238 -271 321 -421 489 -616 688 l-161 165 -219 48 c-697
151 -1426 243 -2283 287 -312 16 -987 31 -1216 28 l-211 -3 120 -105 c543
-474 933 -849 1167 -1124 144 -168 353 -436 347 -443 -2 -2 -35 15 -73 38
-144 88 -309 151 -734 279 -268 81 -226 79 -537 34 -380 -54 -685 -128 -1422
-346 l-273 -81 198 -97 c355 -173 653 -350 884 -525 112 -85 253 -203 258
-216 5 -12 -4 -14 -133 -34 -552 -83 -1353 -344 -2010 -655 l-130 -62 120 -44
c66 -24 170 -69 230 -99 110 -56 271 -162 261 -172 -3 -3 -92 -12 -198 -20
-106 -8 -194 -16 -196 -18 -3 -2 7 -100 22 -217 42 -347 75 -698 107 -1153 7
-88 13 -369 14 -625 1 -256 3 -472 6 -480 3 -12 -8 -16 -51 -18 -212 -9 -577
-36 -745 -53 -229 -24 -251 -33 -289 -108 -66 -131 -59 -346 18 -506 50 -106
91 -144 251 -231 77 -42 141 -77 143 -79 1 -1 14 -79 27 -173 42 -286 93 -518
224 -1012 63 -240 89 -317 141 -420 149 -295 374 -454 909 -640 122 -42 136
-49 145 -76 6 -16 35 -66 65 -112 46 -71 72 -97 195 -196 731 -588 1608 -969
2626 -1140 910 -153 1842 -123 2730 90 521 125 1076 343 1520 597 219 125 522
335 714 496 93 78 164 172 192 256 l15 44 112 37 c224 74 448 175 582 262 85
54 216 184 275 271 49 73 109 197 140 291 33 99 216 830 241 960 12 63 33 194
48 290 l26 175 138 75 c75 42 155 94 178 116 48 46 102 154 123 244 21 87 20
248 0 321 -18 64 -70 133 -106 142 -24 6 -353 42 -468 51 -77 6 -228 15 -395
25 l-120 6 -8 445 c-8 465 -2 662 32 998 17 162 19 174 48 215 75 104 145 279
183 454 11 53 23 100 26 105 8 13 -7 10 -87 -17 -157 -54 -396 -102 -461 -93
-19 2 -15 8 33 35 155 87 394 336 413 428 24 117 71 630 86 935 6 113 13 224
16 248 4 23 2 42 -2 42 -5 0 -63 -48 -129 -106 -229 -203 -433 -347 -645 -458
-141 -73 -290 -139 -290 -128 0 4 45 167 101 362 l100 353 -32 81 c-78 199
-201 413 -426 741 -60 88 -138 207 -174 264 l-64 103 -7 -116 c-9 -148 -32
-305 -69 -474 -34 -154 -80 -322 -88 -322 -3 0 -43 73 -88 163 -180 354 -318
597 -525 924 -96 151 -118 180 -181 231 -236 192 -587 433 -932 640 -182 109
-541 312 -551 312 -2 0 54 -78 125 -172z m-2879 -358 c653 -28 1225 -79 1740
-156 252 -37 819 -147 851 -165 33 -17 261 -219 466 -412 374 -351 718 -737
1248 -1400 l198 -248 -6 -222 c-6 -205 -22 -380 -47 -501 -6 -27 -9 -50 -7
-52 9 -9 92 75 253 252 97 107 178 193 180 191 14 -14 -178 -517 -276 -722
l-56 -121 -255 -126 c-366 -182 -689 -321 -1024 -440 -152 -54 -442 -148 -457
-148 -5 0 25 27 66 61 42 33 115 95 164 138 l87 77 8 135 c17 283 -3 694 -48
979 -32 199 -109 557 -123 572 -4 4 -6 -154 -4 -350 5 -475 -9 -727 -59 -1099
l-13 -93 -110 -89 c-231 -185 -487 -359 -455 -310 55 84 123 198 172 286 l57
103 -20 151 c-76 563 -194 948 -459 1495 -54 111 -103 204 -108 207 -5 3 14
-101 43 -231 154 -684 201 -978 239 -1483 l7 -86 -52 -94 c-77 -139 -188 -302
-275 -404 -42 -49 -80 -91 -84 -93 -4 -1 4 57 17 129 l24 131 -73 120 c-176
292 -355 517 -623 783 -144 143 -396 370 -550 494 -34 28 -10 -3 202 -263 307
-379 435 -553 556 -759 69 -118 184 -353 192 -393 4 -24 -37 -228 -49 -240 -2
-2 -86 80 -188 182 -101 102 -233 230 -294 283 -314 280 -676 523 -1022 688
-134 63 -411 176 -513 208 -30 10 -59 21 -63 25 -16 14 183 23 363 17 183 -7
318 -27 582 -86 76 -17 143 -31 149 -31 17 0 -21 47 -153 186 -549 581 -1194
1026 -1965 1353 -95 40 -173 75 -173 76 0 6 537 135 687 165 185 37 334 60
391 60 48 0 394 -112 627 -203 495 -193 987 -458 1469 -791 76 -53 140 -95
142 -93 4 3 -531 752 -719 1007 -167 226 -447 574 -608 755 -73 83 -236 252
-362 378 l-229 227 54 0 c29 0 159 -5 288 -10z m5242 -3617 c22 -49 60 -139
85 -201 l44 -113 -29 -37 c-56 -71 -197 -198 -283 -255 -47 -31 -134 -82 -193
-112 -59 -30 -101 -57 -94 -60 7 -2 58 -19 113 -37 115 -37 282 -119 406 -200
l85 -55 12 -119 c27 -266 34 -403 36 -696 0 -168 -1 -308 -4 -311 -3 -2 -138
-10 -300 -16 -695 -27 -1112 -55 -1760 -116 -485 -46 -1066 -119 -1118 -141
-18 -7 -68 -38 -110 -67 -97 -69 -182 -111 -258 -130 -201 -50 -420 -17 -604
93 -199 118 -188 115 -550 159 -275 34 -544 64 -765 86 -437 43 -1114 88
-1660 110 -208 9 -380 17 -381 18 -2 1 -6 59 -9 127 -11 201 23 845 51 982 10
52 298 214 489 276 55 18 106 35 114 38 8 2 -26 25 -74 49 -150 77 -253 153
-393 289 -73 71 -131 134 -129 139 9 27 381 141 531 163 111 16 118 16 252 -6
501 -79 992 -214 1559 -429 218 -83 565 -230 565 -240 0 -3 -217 -19 -482 -35
-266 -16 -496 -32 -513 -35 -24 -6 15 -19 200 -64 380 -93 542 -127 1151 -242
221 -41 421 -75 444 -75 93 0 507 79 788 150 668 168 1469 490 2167 870 186
101 421 236 519 299 28 17 52 31 54 31 2 0 22 -39 44 -87z m-6657 -2933 c655
-34 1161 -80 1645 -151 261 -38 603 -105 657 -129 61 -27 129 -94 150 -148 81
-211 -140 -1504 -323 -1889 -68 -143 -213 -227 -466 -269 -89 -15 -142 -16
-378 -10 -151 4 -300 9 -330 12 -30 2 -136 11 -235 20 -575 48 -1144 158
-1585 304 -292 97 -482 178 -577 246 -125 90 -230 254 -302 474 -30 92 -203
803 -235 965 -41 205 -66 409 -56 440 23 70 83 100 231 114 104 10 405 29 574
35 166 6 1028 -3 1230 -14z m7680 0 c254 -17 384 -31 418 -45 17 -7 46 -28 62
-45 29 -30 30 -35 29 -113 -3 -151 -51 -394 -194 -981 -79 -325 -113 -433
-176 -556 -56 -110 -70 -130 -146 -208 -75 -77 -155 -125 -303 -185 -566 -230
-1246 -379 -1990 -437 -77 -6 -160 -12 -185 -15 -139 -13 -591 -17 -668 -6
-258 38 -417 122 -490 258 -124 234 -278 943 -338 1558 -21 217 -16 306 22
375 51 93 113 123 365 174 611 123 1472 208 2444 240 184 6 998 -3 1150 -14z
m-4490 -741 c63 -23 113 -67 139 -123 18 -39 20 -48 61 -351 57 -415 165 -856
284 -1158 66 -164 108 -236 184 -309 209 -204 600 -302 1081 -269 411 28 801
79 1225 162 84 17 155 28 157 26 8 -7 -265 -182 -410 -262 -661 -369 -1393
-585 -2286 -677 -196 -20 -951 -17 -1155 5 -720 78 -1314 234 -1880 494 -142
65 -347 171 -440 226 -103 62 -325 210 -321 214 2 2 62 -7 132 -21 636 -124
1302 -193 1599 -167 368 33 596 119 751 283 67 71 98 122 149 244 150 356 260
821 325 1368 19 166 32 208 74 254 22 25 82 59 126 73 50 15 148 9 205 -12z"/>
</g>
</svg>
